<svg xmlns="http://www.w3.org/2000/svg" version="1.1" xmlns:xlink="http://www.w3.org/1999/xlink" xmlns:svgjs="http://svgjs.dev/svgjs" width="1000" height="1000" viewBox="0 0 1000 1000"><rect width="1000" height="1000" fill="#ffffff"></rect><g transform="matrix(0.7,0,0,0.7,149.57575757575756,374.75675777900085)"><svg viewBox="0 0 396 142" data-background-color="#354f52" preserveAspectRatio="xMidYMid meet" height="358" width="1000" xmlns="http://www.w3.org/2000/svg" xmlns:xlink="http://www.w3.org/1999/xlink"><g id="tight-bounds" transform="matrix(1,0,0,1,0.2400000000000091,-0.03216123151685224)"><svg viewBox="0 0 395.52 142.06432246303368" height="142.06432246303368" width="395.52"><g><svg viewBox="0 0 680.5191467573168 244.43135999999998" height="142.06432246303368" width="395.52"><g transform="matrix(1,0,0,1,284.9991467573168,47.81373204105989)"><svg viewBox="0 0 395.52 148.8038959178802" height="148.8038959178802" width="395.52"><g id="textblocktransform"><svg viewBox="0 0 395.52 148.8038959178802" height="148.8038959178802" width="395.52" id="textblock"><g><svg viewBox="0 0 395.52 148.8038959178802" height="148.8038959178802" width="395.52"><g transform="matrix(1,0,0,1,0,0)"><svg width="395.52" viewBox="-9.5367431640625e-7 -35.54999923706055 210.60000610351562 74.95000457763672" height="148.8038959178802" data-palette-color="#ffffff"><svg></svg><svg></svg><g class="wordmark-text-0" data-fill-palette-color="primary" id="text-0"><path xmlns="http://www.w3.org/2000/svg" d="M16.3 0.85c-4.933 0-8.69-1.56-11.27-4.68-2.587-3.113-3.88-7.637-3.88-13.57v0c0-3.833 0.7-7.117 2.1-9.85 1.4-2.733 3.327-4.8 5.78-6.2 2.447-1.4 5.187-2.1 8.22-2.1v0c2.367 0 4.427 0.373 6.18 1.12 1.747 0.753 3.353 1.813 4.82 3.18v0l-4.3 4.45c-1.1-0.967-2.123-1.667-3.07-2.1-0.953-0.433-2.03-0.65-3.23-0.65v0c-2.5 0-4.467 0.99-5.9 2.97-1.433 1.987-2.15 5.063-2.15 9.23v0c0 4.467 0.533 7.617 1.6 9.45 1.067 1.833 2.783 2.75 5.15 2.75v0c1.567 0 3-0.35 4.3-1.05v0-7.95h-4.35l-0.8-5.7h12.9v17.2c-3.8 2.333-7.833 3.5-12.1 3.5zM42.85-28.8v8.35h12v5.7h-12v8.85h14.45v5.9h-22.65v-34.65h22.65l-0.85 5.85zM88.05-24.1c0 2.333-0.627 4.29-1.88 5.87-1.247 1.587-2.92 2.797-5.02 3.63v0l9.05 14.6h-9.3l-7.5-13.25h-2.3v13.25h-8.2v-34.65h10.9c4.767 0 8.333 0.867 10.7 2.6 2.367 1.733 3.55 4.383 3.55 7.95zM79.6-24.1c0-1.667-0.477-2.883-1.43-3.65-0.947-0.767-2.403-1.15-4.37-1.15v0h-2.7v10h3.05c1.8 0 3.157-0.417 4.07-1.25 0.92-0.833 1.38-2.15 1.38-3.95zM117.2-34.65l1.95 34.65h-7.2l-0.4-14.85c-0.033-0.733-0.05-1.733-0.05-3v0c0-1.667 0.05-3.293 0.15-4.88 0.1-1.58 0.217-3.237 0.35-4.97v0l-3.9 21.8h-6.2l-4.25-21.8c0.367 3.833 0.55 7.283 0.55 10.35v0l-0.05 2.65-0.25 14.7h-7.05l1.95-34.65h8.45l3.85 22.4 3.65-22.4zM140-7.5h-10.15l-1.8 7.5h-8.6l10.6-34.65h9.95l10.6 34.65h-8.8zM131.15-13.4h7.5l-3.75-15.35zM167.45 0l-9.1-27.85c0.333 2.533 0.617 4.973 0.85 7.32 0.233 2.353 0.35 4.847 0.35 7.48v0 13.05h-6.95v-34.65h10.25l8.8 27.75c-0.8-5.133-1.2-9.967-1.2-14.5v0-13.25h6.95v34.65zM200-7.5h-10.15l-1.8 7.5h-8.6l10.6-34.65h9.95l10.6 34.65h-8.8zM191.15-13.4h7.5l-3.75-15.35z" fill="#000000" fill-rule="nonzero" stroke="none" stroke-width="1" stroke-linecap="butt" stroke-linejoin="miter" stroke-miterlimit="10" stroke-dasharray="" stroke-dashoffset="0" font-family="none" font-weight="none" font-size="none" text-anchor="none" style="mix-blend-mode: normal" data-fill-palette-color="primary" opacity="1"></path><path xmlns="http://www.w3.org/2000/svg" d="M15.15 33l6.5-28.25h8.4l-10 34.65h-10.1l-9.95-34.65h8.7zM50 31.9h-10.15l-1.8 7.5h-8.6l10.6-34.65h9.95l10.6 34.65h-8.8zM41.15 26h7.5l-3.75-15.35zM71.6 32.85h16.5l-0.85 6.55h-25.3v-6.15l16.45-22.15h-14.65v-6.35h23.95v6.2z" fill="#000000" fill-rule="nonzero" stroke="none" stroke-width="1" stroke-linecap="butt" stroke-linejoin="miter" stroke-miterlimit="10" stroke-dasharray="" stroke-dashoffset="0" font-family="none" font-weight="none" font-size="none" text-anchor="none" style="mix-blend-mode: normal" data-fill-palette-color="accent" opacity="1"></path></g></svg></g></svg></g></svg></g></svg></g><g><svg viewBox="0 0 244.43135999999998 244.43135999999998" height="244.43135999999998" width="244.43135999999998"><g><svg viewBox="0 0 244.43135999999998 244.43135999999998" height="244.43135999999998" width="244.43135999999998"><g transform="matrix(1,0,0,1,64.61000343970555,64.60265593644992)"><svg viewBox="0 0 115.21135312058888 115.22604812710014" height="115.22604812710014" width="115.21135312058888"><g><svg xmlns="http://www.w3.org/2000/svg" xmlns:xlink="http://www.w3.org/1999/xlink" version="1.1" x="0" y="0" viewBox="0.46199989318847656 0.34700000286102295 47.07499694824219 47.08100128173828" enable-background="new 0 0 48 48" xml:space="preserve" height="115.22604812710014" width="115.21135312058888" class="icon-s-0" data-fill-palette-color="accent" id="s-0"><path d="M24 47.424c0.008 0 0.015 0 0.022 0 0.01 0 0.02 0.004 0.029 0.004 0.001 0 0.001 0 0.002 0s0.001 0 0.001 0c0.015 0 0.03-0.006 0.045-0.006 12.933-0.055 23.438-10.59 23.438-23.537 0-12.915-10.456-23.43-23.347-23.533-0.005 0-0.011 0-0.015 0C24.117 0.351 24.06 0.347 24 0.347c-12.979 0-23.538 10.56-23.538 23.538C0.462 36.865 11.021 47.424 24 47.424zM44.374 23.885c0 2.675-0.523 5.228-1.466 7.57-1.109-0.391-2.838-0.938-5.087-1.461 0.467-1.98 0.725-4.025 0.725-6.109 0-2.11-0.265-4.183-0.744-6.188 1.665-0.393 3.36-0.871 5.085-1.439C43.842 18.615 44.374 21.189 44.374 23.885zM35.381 23.885c0 1.869-0.235 3.703-0.66 5.476-2.625-0.463-5.707-0.818-9.138-0.896v-9.169c2.859-0.078 5.917-0.371 9.122-0.951C35.141 20.138 35.381 21.994 35.381 23.885zM22.418 42.912c-3.653-2.662-6.427-6.299-8.052-10.436 2.816-0.48 5.512-0.721 8.052-0.793V42.912zM25.583 42.986V31.68c3.041 0.076 5.792 0.381 8.166 0.775C32.11 36.641 29.295 40.313 25.583 42.986zM25.583 16.092V4.785c3.705 2.67 6.518 6.335 8.159 10.511C30.886 15.784 28.153 16.024 25.583 16.092zM22.418 4.859v11.232c-3-0.082-5.714-0.385-8.061-0.774C15.98 11.171 18.758 7.527 22.418 4.859zM22.418 19.3v9.176c-2.83 0.082-5.852 0.369-9.018 0.943-0.435-1.791-0.674-3.645-0.674-5.535 0-1.869 0.234-3.703 0.66-5.478C15.986 18.865 19.027 19.217 22.418 19.3zM10.304 30.066c-1.695 0.4-3.424 0.889-5.18 1.473-0.963-2.365-1.497-4.947-1.497-7.654 0-2.688 0.527-5.252 1.478-7.604 1.102 0.393 2.868 0.955 5.181 1.494-0.467 1.98-0.724 4.025-0.724 6.109C9.562 25.994 9.825 28.063 10.304 30.066zM6.555 34.396c1.58-0.51 3.137-0.932 4.667-1.283 1.434 3.883 3.756 7.396 6.792 10.246C13.187 41.873 9.12 38.639 6.555 34.396zM30.149 43.309c3.021-2.852 5.329-6.361 6.752-10.238 1.974 0.445 3.53 0.906 4.584 1.258C38.952 38.555 34.931 41.791 30.149 43.309zM41.464 13.405c-1.549 0.497-3.076 0.91-4.578 1.255-1.425-3.86-3.727-7.355-6.736-10.197C34.916 5.975 38.929 9.197 41.464 13.405zM18.015 4.411c-3.049 2.861-5.378 6.39-6.81 10.291-2.03-0.457-3.62-0.935-4.674-1.287C9.095 9.153 13.172 5.903 18.015 4.411z" fill="#000000" data-fill-palette-color="accent"></path></svg></g></svg></g><g><path d="M32.163 89.075c-1.257 3.551-3.338 5.858-6.241 6.922-2.897 1.066-6.484 0.842-10.761-0.673v0c-2.758-0.977-4.942-2.316-6.551-4.018-1.616-1.704-2.614-3.617-2.995-5.739-0.381-2.122-0.184-4.275 0.589-6.461v0c0.604-1.706 1.399-3.092 2.385-4.16 0.986-1.068 2.154-1.955 3.506-2.661v0l2.114 4.224c-0.974 0.547-1.739 1.109-2.294 1.684-0.556 0.575-0.986 1.293-1.291 2.152v0c-0.637 1.799-0.425 3.467 0.635 5.005 1.067 1.54 3.099 2.841 6.097 3.902v0c3.218 1.139 5.622 1.56 7.212 1.261 1.59-0.299 2.688-1.301 3.292-3.007v0c0.399-1.126 0.511-2.248 0.338-3.367v0l-5.727-2.028-1.111 3.138-4.299-0.881 3.288-9.284 12.382 4.384c0.712 3.326 0.522 6.528-0.568 9.607z" fill="#000000" data-fill-palette-color="accent"></path><path d="M22.402 58.263l5.381 3.432 4.926-7.722 3.665 2.337-4.927 7.723 5.703 3.637 5.935-9.304 3.799 2.423-9.305 14.587-22.318-14.237 9.305-14.587 3.424 2.951z" fill="#000000" data-fill-palette-color="accent"></path><path d="M52.199 31.016c1.204 1.313 1.862 2.737 1.976 4.272 0.114 1.536-0.206 3.08-0.959 4.634v0l12.632 3.548-5.236 4.801-11.069-3.586-1.29 1.182 6.843 7.462-4.618 4.235-17.891-19.512 6.134-5.625c2.683-2.46 5.14-3.812 7.372-4.054 2.227-0.249 4.262 0.632 6.106 2.643zM47.44 35.379c-0.865-0.943-1.758-1.384-2.681-1.324-0.933 0.06-1.954 0.598-3.064 1.615v0l-1.516 1.39 5.158 5.626 1.72-1.576c1.011-0.927 1.559-1.861 1.644-2.802 0.086-0.942-0.335-1.918-1.261-2.929z" fill="#000000" data-fill-palette-color="accent"></path><path d="M72.119 10.251l13.87 22.596-4.833 2.607-5.655-9.839c-0.29-0.478-0.665-1.143-1.124-1.996v0c-0.604-1.12-1.158-2.23-1.663-3.33-0.509-1.107-1.033-2.266-1.573-3.476v0l5.282 16.074-4.171 2.249-10.76-13.121c1.638 2.441 3.013 4.695 4.127 6.761v0l0.923 1.802 5.161 9.973-4.741 2.556-11.248-24.011 5.683-3.064 10.706 13.668-5.667-16.385z" fill="#000000" data-fill-palette-color="accent"></path><path d="M100.609 23.287l-7.528 1.842 0.022 5.888-6.385 1.562 1.578-27.639 7.383-1.806 14.158 23.789-6.529 1.598zM92.968 20.518l5.572-1.363-5.567-10.709z" fill="#000000" data-fill-palette-color="accent"></path><path d="M123.554 26.609l-7.338-21.145c0.29 1.931 0.541 3.793 0.751 5.585 0.21 1.792 0.334 3.694 0.371 5.708v0l0.185 9.964-5.311 0.098-0.491-26.467 7.833-0.146 7.114 21.075c-0.688-3.91-1.064-7.597-1.128-11.06v0l-0.188-10.122 5.311-0.099 0.491 26.467z" fill="#000000" data-fill-palette-color="accent"></path><path d="M149.765 25.134l-7.512-1.904-2.742 5.211-6.372-1.615 14.355-23.671 7.368 1.868 1.348 27.65-6.515-1.651zM144.316 19.105l5.559 1.409 0.106-12.069z" fill="#000000" data-fill-palette-color="accent"></path><path d="M189.052 47.941l18.124-12.729 4.768 4.29-23.379 14.576-5.738-5.162 12.053-24.765 4.942 4.446z" fill="#000000" data-fill-palette-color="accent"></path><path d="M207.863 69.115l-4.311-6.44-5.524 2.04-3.657-5.462 26.503-7.997 4.229 6.316-17.491 21.458-3.739-5.585zM207.844 60.987l3.191 4.766 8.151-8.901z" fill="#000000" data-fill-palette-color="accent"></path><path d="M215.625 85.833l4.487 11.78-4.91 1.167-6.876-18.051 4.388-1.672 20.284 5.717-3.985-10.462 4.537-1.729 6.514 17.1-4.428 1.687z" fill="#000000" data-fill-palette-color="accent"></path><path d="M11.827 168.749c-1.257-3.551-1.093-6.653 0.494-9.308 1.58-2.651 4.509-4.735 8.786-6.249v0c2.758-0.977 5.298-1.31 7.62-1 2.328 0.308 4.308 1.166 5.939 2.576 1.631 1.409 2.834 3.207 3.608 5.391v0c0.604 1.706 0.859 3.283 0.765 4.734-0.094 1.45-0.444 2.875-1.051 4.275v0l-4.301-1.952c0.412-1.038 0.653-1.956 0.723-2.753 0.07-0.797-0.047-1.625-0.351-2.485v0c-0.637-1.799-1.851-2.962-3.642-3.49-1.798-0.525-4.196-0.257-7.195 0.804v0c-3.218 1.139-5.351 2.326-6.398 3.559-1.048 1.233-1.27 2.703-0.666 4.409v0c0.399 1.126 1.018 2.069 1.856 2.829v0l5.727-2.028-1.111-3.138 3.895-2.02 3.288 9.284-12.382 4.384c-2.646-2.137-4.514-4.745-5.604-7.822z" fill="#000000" data-fill-palette-color="accent"></path><path d="M42.396 179.605l-5.38 3.432 4.926 7.722-3.664 2.338-4.927-7.722-5.702 3.637 5.935 9.305-3.798 2.423-9.305-14.587 22.317-14.237 9.306 14.587-4.12 1.861z" fill="#000000" data-fill-palette-color="accent"></path><path d="M63.369 207.424c-1.204 1.313-2.566 2.092-4.086 2.338-1.52 0.246-3.086 0.061-4.699-0.554v0l-2.442 12.891-5.236-4.8 2.615-11.338-1.289-1.183-6.842 7.463-4.618-4.235 17.89-19.511 6.134 5.624c2.683 2.46 4.242 4.791 4.678 6.993 0.44 2.197-0.261 4.301-2.105 6.312zM58.61 203.06c0.865-0.943 1.227-1.872 1.087-2.786-0.14-0.924-0.765-1.895-1.874-2.912v0l-1.516-1.39-5.159 5.626 1.719 1.576c1.011 0.927 1.989 1.392 2.935 1.396 0.946 0.004 1.882-0.499 2.808-1.51z" fill="#000000" data-fill-palette-color="accent"></path><path d="M87.621 211.62l-11.257 24.005-4.834-2.606 5.114-10.131c0.24-0.505 0.59-1.183 1.049-2.035v0c0.604-1.12 1.227-2.193 1.869-3.22 0.645-1.033 1.325-2.108 2.039-3.225v0l-10.526 13.246-4.172-2.249 5.049-16.199c-1.14 2.71-2.267 5.097-3.38 7.163v0l-0.998 1.762-5.496 9.791-4.741-2.556 13.88-22.591 5.682 3.064-5.536 16.455 10.575-13.738z" fill="#000000" data-fill-palette-color="accent"></path><path d="M98.511 235.913l-7.528-1.842-2.699 5.233-6.385-1.561 14.158-23.79 7.384 1.807 1.577 27.638-6.529-1.597zM93.011 229.929l5.572 1.363 0.005-12.07z" fill="#000000" data-fill-palette-color="accent"></path><path d="M123.178 244.29l-6.548-21.402c0.218 1.941 0.399 3.81 0.543 5.608 0.143 1.798 0.196 3.704 0.158 5.718v0l-0.185 9.964-5.31-0.098 0.491-26.468 7.834 0.146 6.326 21.324c-0.542-3.933-0.781-7.631-0.716-11.094v0l0.188-10.123 5.31 0.099-0.491 26.467z" fill="#000000" data-fill-palette-color="accent"></path><path d="M151.935 234.048l-7.512 1.904 0.07 5.888-6.371 1.615 1.348-27.651 7.368-1.867 14.355 23.671-6.516 1.651zM144.271 231.342l5.56-1.409-5.655-10.663z" fill="#000000" data-fill-palette-color="accent"></path><path d="M196.078 210.491l-10.747-19.365 4.768-4.29 12.03 24.786-5.738 5.162-23.356-14.598 4.942-4.445z" fill="#000000" data-fill-palette-color="accent"></path><path d="M215.201 186.42l-4.311 6.44 3.99 4.33-3.657 5.462-17.491-21.458 4.229-6.316 26.503 7.997-3.739 5.585zM207.694 189.534l3.191-4.766-11.336-4.145z" fill="#000000" data-fill-palette-color="accent"></path><path d="M225.224 168.446l4.488-11.78 4.442 2.396-6.876 18.05-4.389-1.672-11.34-17.763-3.985 10.462-4.537-1.728 6.513-17.1 4.429 1.687z" fill="#000000" data-fill-palette-color="accent"></path><path d="M4.367 125.311c0-5.729 4.644-10.374 10.374-10.374 5.729 0 10.374 4.644 10.373 10.374 0 5.729-4.644 10.374-10.373 10.374-5.729 0-10.374-4.644-10.374-10.374z" fill="#000000" data-fill-palette-color="accent"></path><path d="M217.898 125.311c0-5.729 4.644-10.374 10.373-10.374 5.729 0 10.374 4.644 10.374 10.374 0 5.729-4.644 10.374-10.374 10.374-5.729 0-10.374-4.644-10.373-10.374z" fill="#000000" data-fill-palette-color="accent"></path></g></svg></g></svg></g></svg></g><defs></defs></svg><rect width="395.52" height="142.06432246303368" fill="none" stroke="none" visibility="hidden"></rect></g></svg></g></svg>